<svg xmlns="http://www.w3.org/2000/svg" viewBox="0 0 24 24" fill="black">
  <path d="M12 2C6.48 2 2 6.48 2 12s4.48 10 10 10
           10-4.48 10-10S17.52 2 12 2zm0 18
           c-4.41 0-8-3.59-8-8s3.59-8 8-8
           8 3.59 8 8-3.59 8-8 8zm0-13
           c-2.76 0-5 2.24-5 5s2.24 5 5 5
           c1.66 0 3.14-0.81 4.06-2.06
           l-1.53-1.02C14.13 14.34 13.13 15 12 15
           c-1.66 0-3-1.34-3-3s1.34-3 3-3
           c1.13 0 2.13 0.66 2.53 1.59
           l1.53-1.02C15.14 7.81 13.66 7 12 7z"/>
</svg>
