<svg xmlns="http://www.w3.org/2000/svg" viewBox="0 0 24 24" fill="black">
  <path d="M12 .5C5.65.5.5 5.65.5 12c0 5.08 3.29 9.38 7.86 10.9.58.11.79-.25.79-.56 0-.28-.01-1.02-.02-2-3.2.7-3.88-1.54-3.88-1.54-.53-1.34-1.3-1.7-1.3-1.7-1.06-.73.08-.72.08-.72 1.17.08 1.79 1.2 1.79 1.2 1.04 1.78 2.74 1.27 3.4.97.1-.75.41-1.27.74-1.56-2.55-.29-5.23-1.27-5.23-5.64 0-1.25.45-2.28 1.18-3.08-.12-.29-.51-1.46.11-3.06 0 0 .96-.31 3.15 1.18a10.98 10.98 0 0 1 2.87-.39c.97 0 1.95.13 2.87.39 2.18-1.49 3.14-1.18 3.14-1.18.63 1.6.24 2.77.12 3.06.74.8 1.17 1.83 1.17 3.08 0 4.38-2.69 5.34-5.25 5.62.42.37.78 1.1.78 2.22 0 1.61-.01 2.91-.01 3.31 0 .31.2.68.8.56A10.98 10.98 0 0 0 23.5 12C23.5 5.65 18.35.5 12 .5Z"/>
</svg>
